# xmcd CD database file
#
# Track frame offsets:
#	182
#	22585
#	34340
#	47197
#	58880
#	86857
#	101037
#	114042
#	127335
#	142297
#	155227
#	170125
#
# Disc length: 2409 seconds
#
# Revision: 5
# Processed by: cddbd v1.5.2PL0 Copyright (c) Steve Scherf et al.
# Submitted via: CDex 1.79
#
DISCID=b409670c
DTITLE=Best of Chess Ryhthm and Blues - Best of Chess Ryhthm and Blues Volume 2
DYEAR=1988
DGENRE=R&B Chess
TTITLE0=Billy Stewart - Summertime
TTITLE1=Tony Clarke - The Entertainer
TTITLE2=Mitty Collier - I Had a Talk With My Man Last Night
TTITLE3=The Radiants - Voice Your Choice
TTITLE4=The Dells - Stay In My Corner
TTITLE5=Little Milton - If Walls Could Talk
TTITLE6=Laura Lee - Dirty Old Man
TTITLE7=Fontella Bass - Rescue Me
TTITLE8=The Ramsey Lewis Trio - The "In" Crowd
TTITLE9=Sugar Pie DeSanto - Soulful Dress
TTITLE10=Jackie Ross - Selfish One
TTITLE11=Etta James - Tell Mama
EXTD=YEAR: 1988
EXTT0=
EXTT1=
EXTT2=
EXTT3=
EXTT4=
EXTT5=
EXTT6=
EXTT7=
EXTT8=
EXTT9=
EXTT10=
EXTT11=
PLAYORDER=
